inDegrees=no
num_controls=7
num_derivatives=13
num_iterations=159
num_multipliers=7
num_parameters=0
num_slacks=7
num_states=26
objective=0.509704
objective_accelerations=0.039335
objective_balance=0.003507
objective_effort=0.029069
objective_height=0.324739
objective_ligament=0.113054
solver_duration=2016.421137
status=Solve_Succeeded
success=true
DataType=double
version=3
OpenSimVersion=4.5
endheader
time	/jointset/ground_pelvis/pelvis_tilt/value	/jointset/ground_pelvis/pelvis_tx/value	/jointset/ground_pelvis/pelvis_ty/value	/jointset/hip_l/hip_flexion_l/value	/jointset/hip_l/hip_adduction_l/value	/jointset/hip_l/hip_rotation_l/value	/jointset/back/lumbar_extension/value	/jointset/patellofemoral_l/patellar_flexion_l/value	/jointset/knee_l/knee_flexion_l/value	/jointset/knee_l/knee_adduction_l/value	/jointset/knee_l/knee_rotation_l/value	/jointset/ankle_l/ankle_angle_l/value	/jointset/subtalar_l/subtalar_angle_l/value	/jointset/ground_pelvis/pelvis_tilt/speed	/jointset/ground_pelvis/pelvis_tx/speed	/jointset/ground_pelvis/pelvis_ty/speed	/jointset/hip_l/hip_flexion_l/speed	/jointset/hip_l/hip_adduction_l/speed	/jointset/hip_l/hip_rotation_l/speed	/jointset/back/lumbar_extension/speed	/jointset/patellofemoral_l/patellar_flexion_l/speed	/jointset/knee_l/knee_flexion_l/speed	/jointset/knee_l/knee_adduction_l/speed	/jointset/knee_l/knee_rotation_l/speed	/jointset/ankle_l/ankle_angle_l/speed	/jointset/subtalar_l/subtalar_angle_l/speed	/forceset/tau_hip_flexion_l	/forceset/tau_hip_adduction_l	/forceset/tau_hip_rotation_l	/forceset/tau_knee_flexion_l	/forceset/tau_ankle_angle_l	/forceset/tau_subtalar_angle_l	/forceset/tau_lumbar_extension	lambda_cid13_p0	lambda_cid13_p1	lambda_cid13_p2	lambda_cid13_p3	lambda_cid13_p4	lambda_cid13_p5	lambda_cid14_p0	/jointset/ground_pelvis/pelvis_tilt/accel	/jointset/ground_pelvis/pelvis_tx/accel	/jointset/ground_pelvis/pelvis_ty/accel	/jointset/hip_l/hip_flexion_l/accel	/jointset/hip_l/hip_adduction_l/accel	/jointset/hip_l/hip_rotation_l/accel	/jointset/back/lumbar_extension/accel	/jointset/patellofemoral_l/patellar_flexion_l/accel	/jointset/knee_l/knee_flexion_l/accel	/jointset/knee_l/knee_adduction_l/accel	/jointset/knee_l/knee_rotation_l/accel	/jointset/ankle_l/ankle_angle_l/accel	/jointset/subtalar_l/subtalar_angle_l/accel	gamma_cid13_p0	gamma_cid13_p1	gamma_cid13_p2	gamma_cid13_p3	gamma_cid13_p4	gamma_cid13_p5	gamma_cid14_p0
1.5	-0.005562231453716821	-0.02209545763262394	0.8748019409861655	0.6048565469917854	-0.2930562809370227	-0.2032781788173917	-0.782316626624652	0.614479475448298	0.6144794754482118	-0.0669049313188356	-0.1726223994029281	0.07111240349079129	0.02763407681657185	0.4223073130489745	0.2320085957765972	0.3332198310836799	-1.819993280677717	0.1920388629062107	-0.5958152156423566	0.855785398681073	-1.664327904299825	-1.664327904299673	0.06016783194580293	-0.0118220448830301	-0.3054452111862175	0.1049917220284916	-0.2031814811062175	0.05272660218851241	-0.00791216168969924	-0.1748957866682541	0.09633877229617163	0.01807507625664565	0.2793242356363988	-12.21150064692987	-7.256885495921889	2.467428983459502	-8.64152904318353	-669.0255775108831	-52.67271949673421	-20.63110077755176	0.1930130565647121	0.6602829357734911	-0.5391616645866448	-0.390753021003444	0.4747517432145666	0.2363940111046376	1.749058634242735	0.06858578396767087	0.0685857839676684	-0.06541411516102336	0.01744291341159966	0.5335564377839913	0.6526704961264778	1.586830480613027e-07	6.086020352095079e-07	-7.423305297743959e-07	4.054279443290426e-08	1.52934587098679e-07	2.380039098558161e-07	1.713920359135037e-07
1.51	-0.001330070521432508	-0.01974256146462473	0.8781066955977753	0.5866386639588453	-0.2911133561143776	-0.2092236781713545	-0.7736724734371044	0.597841147124083	0.5978411471240223	-0.066308724874451	-0.172740326009513	0.06808469587987388	0.02871530663827384	0.4240597609876602	0.2385475386169169	0.3276820342641577	-1.823376967817067	0.1964994825597278	-0.5932048364882515	0.8729395081213692	-1.663152987497387	-1.663152987497294	0.05901444452207215	-0.01175364566402137	-0.3000559365167335	0.1112161562802465	-0.1952595630898942	0.05112724708279664	-0.007900576943495961	-0.1735770236152723	0.09822169993132114	0.01704093012109286	0.2722275198949017	-11.46750323064951	-6.982810710009849	2.474890381020493	-8.70454253891242	-665.8060310502341	-52.83044440912652	-21.07689167173721	0.1566113750004242	0.6472428496222017	-0.5684149650514679	-0.2812034811715537	0.4247345928627433	0.2854972647321675	1.682727493027898	0.1696266642007138	0.1696266641918437	-0.1490865603820986	0.002830968171670268	0.547690577561515	0.6016073137125657	1.583187201699338e-07	6.066262316671685e-07	-7.407700286694057e-07	3.943385115352861e-08	1.584943953937151e-07	2.455234130958622e-07	1.702124074620543e-07
1.52	0.002917665032737003	-0.01732496728993018	0.8813546069863069	0.5683931386703606	-0.2891272215919085	-0.2151406462543402	-0.7648599510763324	0.5812201043750606	0.5812201043750145	-0.06572580940518968	-0.1728573101154998	0.06511209653485786	0.0298576362872959	0.4254222374255363	0.2449481971156642	0.3218511864679823	-1.825521731787252	0.2006808028709385	-0.5901089614473918	0.8894592333258573	-1.660870789262197	-1.660870789262163	0.0575096369222181	-0.0116335447639667	-0.2944235580060138	0.1172116874925031	-0.1873376450735589	0.04952789197709252	-0.007888992197341252	-0.1722582605622844	0.1001046275664757	0.01600678398555509	0.2651308041534102	-10.72636509918824	-6.708641324996638	2.482801170478337	-8.804747167557304	-662.6523671734172	-53.0287352057626	-21.4923640629348	0.1150187564028358	0.6326260674589963	-0.597771859917275	-0.1429683871704112	0.4188918747532768	0.3334931884555581	1.62218178708115	0.2900420705179876	0.290042070518003	-0.1356981503856707	0.02778324962079076	0.5821772060310713	0.6068898882268166	1.581221505404609e-07	6.026721263261586e-07	-7.377109410394014e-07	3.740229368112602e-08	1.65936618682928e-07	2.521921711694138e-07	1.686274529960688e-07
1.53	0.007177049873643437	-0.01484414876350433	0.8845427837985083	0.5501324126074859	-0.2871007196117294	-0.2210242944607895	-0.7558856469602506	0.5646273929118423	0.5646273929118507	-0.06515969824911179	-0.1729728020942429	0.06219692860624593	0.03105870209615604	0.4263853069855633	0.2511827747138316	0.3157383475856774	-1.826404984503985	0.2045665775830462	-0.5865464150492009	0.905272477952191	-1.657483233970019	-1.65748323397	0.05565366456896515	-0.01145690442666826	-0.2885788687885961	0.1229545780308595	-0.1791303595704215	0.04771940763398326	-0.007878878657866521	-0.1711869028254549	0.102077661608693	0.01485479750249272	0.2577566825740545	-9.968576462557523	-6.382154981584653	2.477739581131283	-8.795009143983888	-659.5232155194888	-53.18631953924049	-21.87490091703371	0.07655435557344432	0.6139701431350554	-0.6248780736114914	-0.02821021911748479	0.3654757326612097	0.3789364823049137	1.541529009831706	0.39131956363805	0.3913195636358567	-0.219323733224475	0.01364634906527019	0.590310149131418	0.5509453186121708	1.581038240642525e-07	5.966160753240613e-07	-7.330596052265697e-07	3.439045862863232e-08	1.753789079034537e-07	2.579570125035647e-07	1.666118396396385e-07
